<svg viewBox="0 0 24 24" fill="currentColor" xmlns="http://www.w3.org/2000/svg">
<path d="M6.58539 14.4591C6.16543 14.7015 6.02154 15.2385 6.264 15.6585C6.50647 16.0785 7.04347 16.2224 7.46344 15.9799L6.58539 14.4591ZM18.0114 9.59308C18.1369 9.12467 17.8589 8.64321 17.3905 8.5177L9.75733 6.47239C9.28892 6.34689 8.80746 6.62486 8.68195 7.09327C8.55644 7.56168 8.83441 8.04315 9.30282 8.16865L16.0879 9.9867L14.2698 16.7717C14.1443 17.2401 14.4223 17.7216 14.8907 17.8471C15.3591 17.9726 15.8406 17.6947 15.9661 17.2263L18.0114 9.59308ZM7.46344 15.9799L17.6023 10.1262L16.7242 8.60541L6.58539 14.4591L7.46344 15.9799Z"/>
</svg>
