<svg viewBox="0 0 24 24" fill="currentColor" xmlns="http://www.w3.org/2000/svg">
<path d="M22 10.5C22.8284 10.5 23.5 11.1716 23.5 12C23.5 12.8284 22.8284 13.5 22 13.5L22 10.5ZM0.93934 13.0607C0.353553 12.4749 0.353553 11.5251 0.93934 10.9393L10.4853 1.3934C11.0711 0.807614 12.0208 0.807614 12.6066 1.3934C13.1924 1.97919 13.1924 2.92893 12.6066 3.51472L4.12132 12L12.6066 20.4853C13.1924 21.0711 13.1924 22.0208 12.6066 22.6066C12.0208 23.1924 11.0711 23.1924 10.4853 22.6066L0.93934 13.0607ZM22 13.5L2 13.5L2 10.5L22 10.5L22 13.5Z"/>
</svg>
