<svg viewBox="0 0 24 24" fill="currentColor" xmlns="http://www.w3.org/2000/svg">
<path d="M14.9036 4C13.5592 4 12.2698 4.53408 11.3191 5.48476C10.3684 6.43543 9.83436 7.72482 9.83436 9.06927V11.8916H7.12161C6.9857 11.8916 6.875 12.0012 6.875 12.1382V15.8648C6.875 16.0008 6.98461 16.1115 7.12161 16.1115H9.83436V23.7565C9.83436 23.8924 9.94397 24.0031 10.081 24.0031H13.8076C13.9435 24.0031 14.0542 23.8935 14.0542 23.7565V16.1115H16.791C16.9039 16.1115 17.0026 16.0347 17.03 15.9251L17.9616 12.1985C17.9708 12.1622 17.9716 12.1242 17.9638 12.0875C17.9561 12.0508 17.9401 12.0163 17.9171 11.9867C17.8941 11.9571 17.8646 11.9332 17.8309 11.9167C17.7972 11.9002 17.7602 11.8917 17.7227 11.8916H14.0542V9.06927C14.0542 8.95772 14.0762 8.84726 14.1188 8.7442C14.1615 8.64115 14.2241 8.5475 14.303 8.46862C14.3819 8.38975 14.4755 8.32718 14.5786 8.28449C14.6816 8.2418 14.7921 8.21983 14.9036 8.21983H17.7534C17.8893 8.21983 18 8.11022 18 7.97321V4.24661C18 4.1107 17.8904 4 17.7534 4H14.9036Z"/>
</svg>
