<svg viewBox="0 0 24 25" fill="currentColor" xmlns="http://www.w3.org/2000/svg">
<path d="M6.57723 17.7394H9.04452V9.75188H6.57723V17.7394Z"/>
<path d="M6.35294 7.20188C6.35294 7.98938 6.98845 8.62688 7.81088 8.62688C8.59593 8.62688 9.23144 7.98938 9.23144 7.20188C9.23144 6.41438 8.59593 5.73938 7.81088 5.73938C6.98845 5.73938 6.35294 6.41438 6.35294 7.20188Z"/>
<path d="M15.8483 17.7394H18.3529V13.3519C18.3529 11.2144 17.867 9.52688 15.3623 9.52688C14.166 9.52688 13.3436 10.2019 13.0071 10.8394H12.9698V9.75188H10.6146V17.7394H13.0819V13.8019C13.0819 12.7519 13.2688 11.7394 14.5772 11.7394C15.8483 11.7394 15.8483 12.9394 15.8483 13.8394V17.7394Z"/>
</svg>
