<svg viewBox="0 0 25 24" fill="currentColor" xmlns="http://www.w3.org/2000/svg">
<mask id="mask0_1209_799" style="mask-type:alpha" maskUnits="userSpaceOnUse" x="0" y="0" width="25" height="24">
<mask id="path-1-outside-1_1209_799" maskUnits="userSpaceOnUse" x="-0.0703125" y="-0.96582" width="26" height="25">
<rect fill="white" x="-0.0703125" y="-0.96582" width="26" height="25"/>
<path d="M12.9297 6.00082L13.6841 0.0341797L13.6782 6.04794L15.1753 0.222662L14.4208 6.1893L16.637 0.593736L15.1399 6.4249L18.0397 1.1474L15.8177 6.74296L19.3599 1.87188L16.4542 7.14938L20.5741 2.76128L17.0377 7.62647L21.6762 3.79204L17.5505 8.17425L22.637 4.95238L17.9926 8.78682L23.4444 6.22464L18.358 9.4465L24.0869 7.58524L18.635 10.1474L24.5525 9.01653L18.8236 10.8778L24.8354 10.4949L18.9179 11.6199L24.9297 11.9969L18.9179 12.3739L24.8354 13.4989L18.8236 13.1219L24.5525 14.9773L18.635 13.8523L24.0869 16.4144L18.358 14.5532L23.4444 17.7751L17.9926 15.2129L22.637 19.0473L17.5505 15.8196L21.6762 20.2077L17.0377 16.3673L20.5741 21.2384L16.4542 16.8503L19.3599 22.1219L15.8177 17.2508L18.0397 22.8464L15.1399 17.5748L16.637 23.4001L14.4208 17.8045L15.1753 23.777L13.6782 17.9459L13.6841 23.9655L12.9297 17.993L12.1753 23.9655V17.9459L10.6782 23.777L11.4385 17.8045L9.22242 23.4001L10.7195 17.5748L7.81967 22.8464L10.0417 17.2508L6.49943 22.1219L9.40513 16.8503L5.27939 21.2384L8.82163 16.3673L4.18313 20.2077L8.30886 15.8196L3.22242 19.0473L7.86682 15.2129L2.41495 17.7751L7.5014 14.5532L1.77252 16.4144L7.22438 13.8523L1.3069 14.9773L7.03578 13.1219L1.02399 13.4989L6.94148 12.3739L0.929687 11.9969L6.94148 11.6199L1.02399 10.4949L7.03578 10.8778L1.3069 9.01653L7.22438 10.1474L1.77252 7.58524L7.5014 9.4465L2.41495 6.22464L7.86682 8.78682L3.22242 4.95238L8.30886 8.17425L4.18313 3.79204L8.82163 7.62647L5.27939 2.76128L9.40513 7.14938L6.49943 1.87188L10.0417 6.74296L7.81967 1.1474L10.7195 6.4249L9.22242 0.593736L11.4385 6.1893L10.6782 0.222662L12.1753 6.04794V0.0341797L12.9297 6.00082Z"/>
</mask>
<path d="M12.9297 6.00082L13.6841 0.0341797L13.6782 6.04794L15.1753 0.222662L14.4208 6.1893L16.637 0.593736L15.1399 6.4249L18.0397 1.1474L15.8177 6.74296L19.3599 1.87188L16.4542 7.14938L20.5741 2.76128L17.0377 7.62647L21.6762 3.79204L17.5505 8.17425L22.637 4.95238L17.9926 8.78682L23.4444 6.22464L18.358 9.4465L24.0869 7.58524L18.635 10.1474L24.5525 9.01653L18.8236 10.8778L24.8354 10.4949L18.9179 11.6199L24.9297 11.9969L18.9179 12.3739L24.8354 13.4989L18.8236 13.1219L24.5525 14.9773L18.635 13.8523L24.0869 16.4144L18.358 14.5532L23.4444 17.7751L17.9926 15.2129L22.637 19.0473L17.5505 15.8196L21.6762 20.2077L17.0377 16.3673L20.5741 21.2384L16.4542 16.8503L19.3599 22.1219L15.8177 17.2508L18.0397 22.8464L15.1399 17.5748L16.637 23.4001L14.4208 17.8045L15.1753 23.777L13.6782 17.9459L13.6841 23.9655L12.9297 17.993L12.1753 23.9655V17.9459L10.6782 23.777L11.4385 17.8045L9.22242 23.4001L10.7195 17.5748L7.81967 22.8464L10.0417 17.2508L6.49943 22.1219L9.40513 16.8503L5.27939 21.2384L8.82163 16.3673L4.18313 20.2077L8.30886 15.8196L3.22242 19.0473L7.86682 15.2129L2.41495 17.7751L7.5014 14.5532L1.77252 16.4144L7.22438 13.8523L1.3069 14.9773L7.03578 13.1219L1.02399 13.4989L6.94148 12.3739L0.929687 11.9969L6.94148 11.6199L1.02399 10.4949L7.03578 10.8778L1.3069 9.01653L7.22438 10.1474L1.77252 7.58524L7.5014 9.4465L2.41495 6.22464L7.86682 8.78682L3.22242 4.95238L8.30886 8.17425L4.18313 3.79204L8.82163 7.62647L5.27939 2.76128L9.40513 7.14938L6.49943 1.87188L10.0417 6.74296L7.81967 1.1474L10.7195 6.4249L9.22242 0.593736L11.4385 6.1893L10.6782 0.222662L12.1753 6.04794V0.0341797L12.9297 6.00082Z" stroke="black" stroke-width="0.0738621" stroke-miterlimit="10" mask="url(#path-1-outside-1_1209_799)"/>
</mask>
<g mask="url(#mask0_1209_799)">
<rect x="-16.3438" y="-1.22559" width="42.5751" height="25.9571" rx="1.6619"/>
</g>
</svg>
