<svg viewBox="0 0 24 25" fill="currentColor" xmlns="http://www.w3.org/2000/svg">
<path d="M17.5969 9.28551C18.1484 8.87191 18.6447 8.37558 19.0307 7.79654C18.5344 8.01713 17.9553 8.18257 17.3763 8.23771C17.9829 7.87926 18.4241 7.32779 18.6447 6.63845C18.0932 6.96933 17.459 7.21749 16.8248 7.35536C16.2733 6.77632 15.5289 6.44543 14.7017 6.44543C13.1024 6.44543 11.8064 7.74139 11.8064 9.34065C11.8064 9.56124 11.834 9.78183 11.8892 10.0024C9.49026 9.86455 7.33953 8.70646 5.9057 6.96933C5.65754 7.38293 5.51967 7.87926 5.51967 8.43073C5.51967 9.42338 6.016 10.3057 6.81563 10.8296C6.34688 10.8021 5.87813 10.6918 5.4921 10.4712V10.4987C5.4921 11.905 6.48475 13.0631 7.80828 13.3388C7.58769 13.394 7.31195 13.4491 7.06379 13.4491C6.87078 13.4491 6.70533 13.4215 6.51232 13.394C6.87078 14.5521 7.94614 15.3793 9.21453 15.4068C8.22188 16.1789 6.98107 16.6476 5.62997 16.6476C5.3818 16.6476 5.16122 16.6201 4.94063 16.5925C6.20901 17.4197 7.72555 17.8884 9.37997 17.8884C14.7017 17.8884 17.5969 13.5043 17.5969 9.67154C17.5969 9.53367 17.5969 9.42338 17.5969 9.28551Z"/>
</svg>
